<svg xmlns="http://www.w3.org/2000/svg" viewBox="0 0 206 261.5"><defs><style>.cls-1{fill:#f9f9f7;}.cls-2{fill:#bd97b4;}.cls-3{fill:#ffe884;}.cls-4{fill:none;}</style></defs><title>자산 36</title><g id="레이어_2" data-name="레이어 2"><g id="레이어_1-2" data-name="레이어 1"><path class="cls-1" d="M166.87,148.58a24.15,24.15,0,0,1,.8,8.5c-.57,6.69-2.29,14.34-10,21.34-5.91,5.4-15.43,5.79-19.72,5.29-4.82-.55-12.39-3.73-18.81-8.78-6.62-5.21-11.73-14.85-11-23.6s6.26-15.81,12.17-20.61a22.63,22.63,0,0,1,7.25-3.83,21.91,21.91,0,0,1,13.86-15.84,58.53,58.53,0,0,0-37.75-14c-.07.52-.14,1-.24,1.58-1.39,7.88-8.69,14-12.4,16.23-4.15,2.49-12.09,4.6-20.26,4.51a30,30,0,0,1-11.9-2.78C48,128.36,40.73,143.48,37.12,155.91c5.1.42,9.68,2.26,12.18,4.35C52.56,163,59.5,172.14,58.19,182A24,24,0,0,1,64,188.24c3.62,5.64,6.93,12.76,5.12,23-1.39,7.88-8.69,14-12.4,16.22a35.21,35.21,0,0,1-12,3.88,48.15,48.15,0,0,0,18.43,16.72c17.89,9.21,29.35,11.67,40.87,11.47,2,0,4-.13,5.93-.29-5.61-1.94-10.89-5.51-14-10.28-4.79-7.35-4.7-16.35-2.93-23.75s8.07-14.43,16.47-18,15.29-3.1,20.11-1.68c7.58,2.24,13.36,5.92,17,11.64s6.93,12.75,5.12,23c0,.3-.13.59-.2.88,20.52-21.56,26.44-62.76,15.35-92.56A.94.94,0,0,0,166.87,148.58Z"/><path class="cls-2" d="M166.87,148.58a.94.94,0,0,1,.1-.1c-.27-.73-.54-1.45-.83-2.16C166.42,147.07,166.66,147.82,166.87,148.58Z"/><path class="cls-2" d="M164.75,143.12c.48,1,.95,2.12,1.39,3.2A34,34,0,0,0,164.75,143.12Z"/><path class="cls-3" d="M166.87,148.58c-.21-.76-.45-1.51-.73-2.26-.44-1.08-.91-2.15-1.39-3.2l0-.06c-6.28-13.43-14.05-24.24-23.31-32a21.91,21.91,0,0,0-13.86,15.84,22.63,22.63,0,0,0-7.25,3.83c-5.91,4.8-11.48,11.87-12.17,20.61s4.42,18.39,11,23.6c6.42,5,14,8.23,18.81,8.78,4.29.5,13.81.11,19.72-5.29,7.68-7,9.4-14.65,10-21.34A24.15,24.15,0,0,0,166.87,148.58Z"/><path class="cls-3" d="M58.19,182c1.31-9.88-5.63-19-8.89-21.76-2.5-2.09-7.08-3.93-12.18-4.35-.57,2-1.06,3.87-1.45,5.68a111.25,111.25,0,0,0-2.09,14.58,116.9,116.9,0,0,0,.68,25.25c1.48,10.52,4.69,21,10.52,29.91a35.21,35.21,0,0,0,12-3.88c3.71-2.22,11-8.34,12.4-16.22,1.81-10.23-1.5-17.35-5.12-23A24,24,0,0,0,58.19,182Z"/><path class="cls-3" d="M129.67,205.54c-4.82-1.42-11.71-1.88-20.11,1.68s-14.71,10.57-16.47,18S91.23,241.6,96,249c3.1,4.77,8.38,8.34,14,10.28,13.76-1.09,26.1-5.25,36.23-13.23a52.25,52.25,0,0,0,5.38-5c.07-.29.15-.58.2-.88,1.81-10.23-1.5-17.34-5.12-23S137.25,207.78,129.67,205.54Z"/><path class="cls-3" d="M103.42,98.61c.1-.54.17-1.06.24-1.58a71.8,71.8,0,0,0-10.23.58c-14.07,1.77-25.57,9.23-34.57,19a30,30,0,0,0,11.9,2.78c8.17.09,16.11-2,20.26-4.51C94.73,112.61,102,106.49,103.42,98.61Z"/><path class="cls-3" d="M93.6,145.12a11.48,11.48,0,0,0-6.78-4.63,11.64,11.64,0,0,0-8,.67,11,11,0,0,0-6.56,7.15c-.7,2.95-.74,6.53,1.17,9.46a11.72,11.72,0,0,0,9.21,4.76,16.92,16.92,0,0,0,8.06-1.8c1.48-.89,4.38-3.32,4.94-6.46A12,12,0,0,0,93.6,145.12Z"/><rect class="cls-4" width="206" height="261.5"/></g></g></svg>