<svg xmlns="http://www.w3.org/2000/svg" viewBox="0 0 299 299"><defs><style>.cls-1{fill:#ffe884;}.cls-2,.cls-3{fill:none;}.cls-2{stroke:#212121;stroke-linecap:round;stroke-linejoin:round;stroke-width:3px;}</style></defs><title>자산 39</title><g id="레이어_2" data-name="레이어 2"><g id="레이어_1-2" data-name="레이어 1"><path class="cls-1" d="M245.67,156.33a82.54,82.54,0,0,0-13-26.15c13.88-31.08.07-67.75-7.94-79.87-12.86-19.46-56.56-44.22-95.1-25C88.2,46,76.35,79.94,80.58,109.14a77.1,77.1,0,0,0-18.4,21.14c-13,22.55-22.1,51.94-13.59,80.7s36.66,53.26,64.17,61.76c26.68,8.25,54.75,9.11,70.79,5,14.31-3.68,44.2-16.59,56.47-41.07C255.92,204.9,252,178.37,245.67,156.33Z"/><path class="cls-2" d="M171.73,62.33c-3.37,8.29-21,9-26.07-.68"/><ellipse cx="151.76" cy="52.84" rx="4.17" ry="2.98" transform="translate(83.54 198.33) rotate(-84.08)"/><ellipse cx="165.99" cy="54.31" rx="4.17" ry="2.98" transform="translate(94.84 213.81) rotate(-84.08)"/><rect class="cls-3" width="299" height="299"/></g></g></svg>