<svg xmlns="http://www.w3.org/2000/svg" viewBox="0 0 299 299"><defs><style>.cls-1{fill:#f9f9f7;}.cls-2{fill:#bd97b4;}.cls-3{fill:#ffe884;}.cls-4{fill:none;}</style></defs><title>자산 38</title><g id="레이어_2" data-name="레이어 2"><g id="레이어_1-2" data-name="레이어 1"><path class="cls-1" d="M229,112.64a29.89,29.89,0,0,1,1,10.56c-.71,8.29-2.84,17.79-12.36,26.48-7.35,6.7-19.15,7.18-24.48,6.57-6-.69-15.37-4.64-23.34-10.91-8.22-6.46-14.56-18.42-13.7-29.28s7.76-19.62,15.1-25.57a28,28,0,0,1,9-4.76,27.22,27.22,0,0,1,17.21-19.65,72.59,72.59,0,0,0-46.85-17.4c-.09.64-.18,1.29-.29,2C148.5,60.42,139.44,68,134.84,70.77c-5.15,3.1-15,5.71-25.14,5.61a37.35,37.35,0,0,1-14.78-3.45c-13.53,14.63-22.49,33.38-27,48.82,6.33.51,12,2.8,15.11,5.4,4,3.39,12.66,14.73,11,27a29.85,29.85,0,0,1,7.23,7.72c4.5,7,8.6,15.83,6.36,28.53C106,200.17,96.9,207.76,92.3,210.53c-3.36,2-8.71,3.82-14.84,4.81a59.84,59.84,0,0,0,22.86,20.75c22.21,11.42,36.43,14.47,50.72,14.23,2.49,0,5-.16,7.37-.36-7-2.42-13.52-6.84-17.37-12.76-5.95-9.12-5.83-20.28-3.64-29.48s10-17.9,20.44-22.31,19-3.84,24.95-2.08c9.42,2.78,16.59,7.35,21.14,14.44s8.6,15.83,6.36,28.53c-.07.37-.16.73-.25,1.09,25.45-26.76,32.81-77.89,19-114.87Z"/><path class="cls-2" d="M229,112.64l.12-.12c-.33-.9-.67-1.8-1-2.68C228.4,110.77,228.7,111.71,229,112.64Z"/><path class="cls-2" d="M226.33,105.88c.6,1.3,1.17,2.62,1.72,4A38.88,38.88,0,0,0,226.33,105.88Z"/><path class="cls-3" d="M229,112.64c-.26-.93-.56-1.87-.91-2.8-.55-1.34-1.12-2.66-1.72-4l0-.08c-7.79-16.67-17.44-30.08-28.92-39.72a27.22,27.22,0,0,0-17.21,19.65,28,28,0,0,0-9,4.76c-7.34,6-14.25,14.72-15.1,25.57s5.48,22.82,13.7,29.28c8,6.27,17.36,10.22,23.34,10.91,5.33.61,17.13.13,24.48-6.57,9.52-8.69,11.65-18.19,12.36-26.48A29.89,29.89,0,0,0,229,112.64Z"/><path class="cls-3" d="M94.1,154.14c1.62-12.26-7-23.6-11-27-3.1-2.6-8.78-4.89-15.11-5.4-.71,2.43-1.32,4.8-1.81,7a138.9,138.9,0,0,0-2.58,18.1,144.71,144.71,0,0,0,.83,31.33c1.85,13.05,5.83,26.11,13.07,37.12,6.13-1,11.48-2.79,14.84-4.81,4.6-2.77,13.66-10.36,15.39-20.14,2.24-12.7-1.86-21.52-6.36-28.53A29.85,29.85,0,0,0,94.1,154.14Z"/><path class="cls-3" d="M182.79,183.33c-6-1.76-14.53-2.33-24.95,2.08s-18.25,13.12-20.44,22.31-2.31,20.36,3.64,29.48c3.85,5.92,10.39,10.34,17.37,12.76,17.07-1.36,32.38-6.51,44.94-16.42a65.69,65.69,0,0,0,6.69-6.15c.09-.36.18-.72.25-1.09,2.24-12.7-1.87-21.52-6.36-28.53S192.21,186.11,182.79,183.33Z"/><path class="cls-3" d="M150.23,50.63c.11-.66.2-1.31.29-2a90.71,90.71,0,0,0-12.7.71c-17.46,2.21-31.73,11.47-42.9,23.54a37.35,37.35,0,0,0,14.78,3.45c10.14.1,20-2.51,25.14-5.61C139.44,68,148.5,60.42,150.23,50.63Z"/><path class="cls-3" d="M138,108.35c-1.81-2.82-4.67-4.64-8.42-5.74a14.55,14.55,0,0,0-9.93.82c-4.15,1.76-7.27,5.23-8.14,8.88s-.91,8.11,1.45,11.74,7.27,5.86,11.43,5.9a20.74,20.74,0,0,0,10-2.23c1.83-1.1,5.44-4.12,6.13-8A15,15,0,0,0,138,108.35Z"/><rect class="cls-4" width="299" height="299"/></g></g></svg>